<?xml version="1.0" encoding="utf-8"?>
<!-- Generator: Adobe Illustrator 24.3.0, SVG Export Plug-In . SVG Version: 6.00 Build 0)  -->
<svg version="1.1" id="Layer_1" xmlns="http://www.w3.org/2000/svg" xmlns:xlink="http://www.w3.org/1999/xlink" x="0px" y="0px"
	 viewBox="0 0 72 72" style="enable-background:new 0 0 72 72;" xml:space="preserve">
<style type="text/css">
	.st0{fill:#FFFFFF;}
	.st1{fill:#986CD8;}
</style>
<circle class="st0" cx="36" cy="36" r="32.4"/>
<g>
	<polygon class="st1" points="21.86,34.42 50.19,34.42 50.19,30.61 21.87,30.55 	"/>
	<path class="st1" d="M43.72,22.03c0-4.26-3.46-7.72-7.72-7.72s-7.72,3.46-7.72,7.72v5.52h15.44V22.03z"/>
	<path class="st1" d="M21.81,49.53l14.16,8.16l14.19-8.1c0.02-0.01,0.03-0.03,0.03-0.06V36.42H21.85L21.81,49.53z"/>
	<path class="st1" d="M36,0C16.12,0,0,16.12,0,36s16.12,36,36,36s36-16.12,36-36S55.88,0,36,0z M53.19,49.53
		c0,1.09-0.59,2.11-1.54,2.66l0,0l-14.13,8.1c-0.47,0.27-1,0.4-1.52,0.4s-1.05-0.13-1.52-0.4l-14.13-8.1
		c-0.95-0.54-1.54-1.56-1.54-2.66V30.61c0-1.69,1.38-3.06,3.06-3.06h3.41v-5.52c0-5.91,4.81-10.72,10.72-10.72
		s10.72,4.81,10.72,10.72v5.52h3.41c1.69,0,3.06,1.38,3.06,3.06C53.19,30.61,53.19,49.53,53.19,49.53z"/>
</g>
</svg>
